<?xml version="1.0" encoding="utf-8"?>
<!-- Generator: Adobe Illustrator 25.0.0, SVG Export Plug-In . SVG Version: 6.00 Build 0)  -->
<svg version="1.1" id="Layer_1" xmlns="http://www.w3.org/2000/svg" xmlns:xlink="http://www.w3.org/1999/xlink" x="0px" y="0px"
	 viewBox="0 0 50 50" enable-background="new 0 0 50 50" xml:space="preserve">
<path fill="#FFFFFF" d="M46.5,30.5h-9v-11h9c1.9,0,3.5-1.6,3.5-3.5c0-1.9-1.6-3.5-3.5-3.5h-9v-9C37.5,1.6,35.9,0,34,0
	c-1.9,0-3.5,1.6-3.5,3.5v9h-11v-9C19.5,1.6,17.9,0,16,0c-1.9,0-3.5,1.6-3.5,3.5v9h-9C1.6,12.5,0,14.1,0,16c0,1.9,1.6,3.5,3.5,3.5h9
	v11h-9C1.6,30.5,0,32.1,0,34s1.6,3.5,3.5,3.5h9v9c0,1.9,1.6,3.5,3.5,3.5c1.9,0,3.5-1.6,3.5-3.5v-9h11v9c0,1.9,1.6,3.5,3.5,3.5
	c1.9,0,3.5-1.6,3.5-3.5v-9h9c1.9,0,3.5-1.6,3.5-3.5S48.4,30.5,46.5,30.5z M19.5,30.5v-11h11v11H19.5z"/>
</svg>
